HIERARCHY
ROOT Hips
{
	OFFSET 0.000000 0.000000 0.000000
	CHANNELS 6 Xposition Yposition Zposition Zrotation Yrotation Xrotation 
	JOINT LHipJoint
	{
		OFFSET 0.000000 0.000000 0.000000
		CHANNELS 3 Zrotation Yrotation Xrotation
		JOINT LeftUpLeg
		{
			OFFSET 1.363060 -1.794630 0.839290
			CHANNELS 3 Zrotation Yrotation Xrotation
			JOINT LeftLeg
			{
				OFFSET 2.448110 -6.726130 0.000000
				CHANNELS 3 Zrotation Yrotation Xrotation
				JOINT LeftFoot
				{
					OFFSET 2.562200 -7.039590 0.000000
					CHANNELS 3 Zrotation Yrotation Xrotation
					JOINT LeftToeBase
					{
						OFFSET 0.157640 -0.433110 2.322550
						CHANNELS 3 Zrotation Yrotation Xrotation
						End Site
						{
							OFFSET 0.000000 0.000000 0.000000
						}
					}
				}
			}
		}
	}
	JOINT RHipJoint
	{
		OFFSET 0.000000 0.000000 0.000000
		CHANNELS 3 Zrotation Yrotation Xrotation
		JOINT RightUpLeg
		{
			OFFSET -1.305520 -1.794630 0.839290
			CHANNELS 3 Zrotation Yrotation Xrotation
			JOINT RightLeg
			{
				OFFSET -2.542530 -6.985550 0.000000
				CHANNELS 3 Zrotation Yrotation Xrotation
				JOINT RightFoot
				{
					OFFSET -2.568260 -7.056230 0.000000
					CHANNELS 3 Zrotation Yrotation Xrotation
					JOINT RightToeBase
					{
						OFFSET -0.164730 -0.452590 2.363150
						CHANNELS 3 Zrotation Yrotation Xrotation
						End Site
						{
							OFFSET 0.000000 0.000000 0.000000
						}
					}
				}
			}
		}
	}
	JOINT LowerBack
	{
		OFFSET 0.000000 0.000000 0.000000
		CHANNELS 3 Zrotation Yrotation Xrotation
		JOINT Spine
		{
			OFFSET 0.028270 2.035590 -0.193380
			CHANNELS 3 Zrotation Yrotation Xrotation
			JOINT Spine1
			{
				OFFSET 0.056720 2.048850 -0.042750
				CHANNELS 3 Zrotation Yrotation Xrotation
				JOINT Neck
				{
					OFFSET 0.000000 0.000000 0.000000
					CHANNELS 3 Zrotation Yrotation Xrotation
					JOINT Neck1
					{
						OFFSET -0.054170 1.746240 0.172020
						CHANNELS 3 Zrotation Yrotation Xrotation
						JOINT Head
						{
							OFFSET 0.104070 1.761360 -0.123970
							CHANNELS 3 Zrotation Yrotation Xrotation
							End Site
							{
								OFFSET 0.000000 0.000000 0.000000
							}
						}
					}
				}
				JOINT LeftShoulder
				{
					OFFSET 0.000000 0.000000 0.000000
					CHANNELS 3 Zrotation Yrotation Xrotation
					JOINT LeftArm
					{
						OFFSET 3.362410 1.200890 -0.311210
						CHANNELS 3 Zrotation Yrotation Xrotation
						JOINT LeftForeArm
						{
							OFFSET 4.983000 -0.000000 -0.000000
							CHANNELS 3 Zrotation Yrotation Xrotation
							JOINT LeftHand
							{
								OFFSET 3.483560 -0.000000 -0.000000
								CHANNELS 3 Zrotation Yrotation Xrotation
								JOINT LeftFingerBase
								{
									OFFSET 0.000000 0.000000 0.000000
									CHANNELS 3 Zrotation Yrotation Xrotation
									JOINT LeftHandIndex1
									{
										OFFSET 0.715260 -0.000000 -0.000000
										CHANNELS 3 Zrotation Yrotation Xrotation
										End Site
										{
											OFFSET 0.000000 0.000000 0.000000
										}
									}
								}
								JOINT LThumb
								{
									OFFSET 0.000000 0.000000 0.000000
									CHANNELS 3 Zrotation Yrotation Xrotation
									End Site
									{
										OFFSET 0.000000 0.000000 0.000000
									}
								}
							}
						}
					}
				}
				JOINT RightShoulder
				{
					OFFSET 0.000000 0.000000 0.000000
					CHANNELS 3 Zrotation Yrotation Xrotation
					JOINT RightArm
					{
						OFFSET -3.136600 1.374050 -0.404650
						CHANNELS 3 Zrotation Yrotation Xrotation
						JOINT RightForeArm
						{
							OFFSET -5.241900 -0.000000 -0.000000
							CHANNELS 3 Zrotation Yrotation Xrotation
							JOINT RightHand
							{
								OFFSET -3.444170 -0.000000 -0.000000
								CHANNELS 3 Zrotation Yrotation Xrotation
								JOINT RightFingerBase
								{
									OFFSET 0.000000 0.000000 0.000000
									CHANNELS 3 Zrotation Yrotation Xrotation
									JOINT RightHandIndex1
									{
										OFFSET -0.622530 -0.000000 -0.000000
										CHANNELS 3 Zrotation Yrotation Xrotation
										End Site
										{
											OFFSET 0.000000 0.000000 0.000000
										}
									}
								}
								JOINT RThumb
								{
									OFFSET 0.000000 0.000000 0.000000
									CHANNELS 3 Zrotation Yrotation Xrotation
									End Site
									{
										OFFSET 0.000000 0.000000 0.000000
									}
								}
							}
						}
					}
				}
			}
		}
	}
}
MOTION
Frames: 12
Frame Time: 0.008333
6.846359 17.213151 34.052508 -9.232175 -62.058551 19.325838 -1.738957 -6.684471 -4.217085 -7.242132 1.557008 -30.561584 2.841031 15.178822 39.757632 1.891466 0.509601 8.549884 0.539900 -4.707700 -13.076800 1.906760 6.267699 -3.531738 15.254011 1.524666 -29.630732 -3.386848 -16.541358 42.936101 -1.424647 -1.170873 2.936457 -0.454600 4.325600 -11.994600 4.084610 0.467959 13.036134 1.051605 1.102015 -4.701514 2.881114 0.451669 -18.511931 -22.703147 -14.658281 8.591756 7.784226 -28.505368 5.359230 18.573100 -13.730900 4.860400 -7.905814 -11.938329 3.189963 -64.915130 -4.159643 20.559936 83.620736 -54.269693 -69.593135 0.137141 -2.362101 -6.040949 -3.092037 -13.636610 0.583500 -7.125000 0.000000 0.000000 -20.830400 19.016400 13.847500 4.529705 8.235912 3.027671 62.076310 15.211466 23.550037 -86.678510 55.902928 -71.376340 -0.637786 2.007601 32.163741 4.415902 9.605720 0.866400 7.125000 0.000000 0.000000 23.307800 -21.824100 14.161400 
6.845787 17.215210 34.053995 -9.264927 -62.079146 19.344711 -1.745929 -6.678809 -4.211460 -7.234238 1.556223 -30.530345 2.840377 15.174229 39.741033 1.839544 0.625919 8.528896 0.560500 -4.795200 -13.325500 1.910894 6.267262 -3.530532 15.258702 1.514758 -29.607752 -3.375344 -16.531799 42.907695 -1.456268 -1.102431 2.988753 -0.447200 4.290700 -11.896000 4.082869 0.476036 13.013565 1.049860 1.114799 -4.699494 2.855617 0.452240 -18.508809 -22.630900 -14.713465 8.623609 7.798387 -28.568947 5.291743 18.559700 -13.727500 4.791000 -7.902001 -11.911470 3.198179 -64.850368 -4.094802 20.564278 83.765958 -54.307324 -69.735920 0.139920 -2.366480 -6.209557 -3.124689 -13.555934 0.584600 -7.125000 0.000000 0.000000 -20.859900 19.096000 13.830000 4.544986 8.245319 3.034115 62.050325 15.117787 23.612533 -86.712066 55.916746 -71.391508 -0.638196 2.018292 32.140114 4.287356 9.524565 0.839500 7.125000 0.000000 0.000000 23.241100 -21.909200 14.063200 
6.845673 17.214066 34.054109 -9.328110 -62.095693 19.384898 -1.734111 -6.674641 -4.213981 -7.226254 1.606337 -30.545614 2.856362 15.180278 39.780452 1.845634 0.610579 8.513023 0.571100 -4.839600 -13.451600 1.910966 6.266090 -3.529678 15.287075 1.515463 -29.601943 -3.375333 -16.535286 42.915557 -1.465453 -1.080748 2.989136 -0.449900 4.303200 -11.931400 4.100293 0.486346 13.004754 1.045832 1.130815 -4.696365 2.845789 0.457459 -18.499551 -22.667018 -14.676024 8.650124 7.854322 -28.580345 5.255103 18.655800 -13.726300 4.789700 -7.912484 -11.908234 3.204052 -64.763889 -4.041077 20.590059 83.830027 -54.328105 -69.798553 0.135727 -2.372541 -6.145331 -3.064456 -13.627215 0.575700 -7.125000 0.000000 0.000000 -20.810100 19.034300 13.823000 4.534375 8.233808 3.033265 62.107006 15.114551 23.590631 -86.681881 55.916339 -71.364731 -0.635123 2.013505 32.168730 4.290521 9.595564 0.846900 7.125000 0.000000 0.000000 23.227700 -21.840900 14.093700 
6.845787 17.211892 34.053995 -9.414225 -62.112322 19.450096 -1.724047 -6.668784 -4.215864 -7.195481 1.608526 -30.545600 2.870658 15.189495 39.817568 1.856394 0.585355 8.509925 0.559200 -4.789800 -13.309900 1.910321 6.268118 -3.529604 15.326161 1.519376 -29.602863 -3.375790 -16.539894 42.927887 -1.478766 -1.048280 2.997435 -0.447500 4.291900 -11.899500 4.117899 0.490832 12.999076 1.050440 1.138916 -4.696509 2.858071 0.461747 -18.510043 -22.657542 -14.702280 8.676507 7.861839 -28.604997 5.205065 18.658800 -13.713400 4.736800 -7.908575 -11.890775 3.209153 -64.727067 -3.980592 20.592087 83.982611 -54.364038 -69.939122 0.136878 -2.381315 -6.243260 -2.992859 -13.593504 0.558800 -7.125000 0.000000 0.000000 -20.765600 19.073600 13.769300 4.549873 8.240970 3.037185 62.050497 15.048182 23.623262 -86.717318 55.927051 -71.392475 -0.635562 2.021475 32.148101 4.211408 9.540733 0.829800 7.125000 0.000000 0.000000 23.188100 -21.898900 14.031200 
6.846016 17.209375 34.053652 -9.483677 -62.126004 19.498563 -1.711447 -6.663799 -4.219174 -7.174642 1.614326 -30.553964 2.891977 15.205066 39.875728 1.855483 0.582245 8.475655 0.558800 -4.788100 -13.305200 1.907854 6.269287 -3.529922 15.361258 1.522638 -29.609048 -3.381621 -16.548787 42.954569 -1.486531 -1.027695 2.989439 -0.448900 4.298400 -11.917600 4.130629 0.497308 12.993364 1.051555 1.149444 -4.695425 2.859035 0.465842 -18.513375 -22.654062 -14.714988 8.704660 7.884775 -28.635523 5.157922 18.686000 -13.708100 4.700000 -7.909084 -11.877321 3.214854 -64.673275 -3.927350 20.595400 84.106357 -54.394836 -70.056030 0.135439 -2.387430 -6.273482 -2.949408 -13.603757 0.549900 -7.125000 0.000000 0.000000 -20.734000 19.069300 13.747400 4.557510 8.242839 3.040057 62.026990 14.999365 23.643707 -86.736620 55.934959 -71.405875 -0.635292 2.026282 32.138820 4.152811 9.513339 0.818600 7.125000 0.000000 0.000000 23.155700 -21.929000 13.990300 
6.846245 17.205714 34.053194 -9.577434 -62.136411 19.567791 -1.694966 -6.658375 -4.224438 -7.143744 1.613267 -30.564679 2.918445 15.224719 39.947227 1.854202 0.578680 8.432073 0.558000 -4.784900 -13.296100 1.904073 6.270883 -3.530577 15.409580 1.528986 -29.622437 -3.391402 -16.562581 42.995487 -1.489594 -1.016169 2.965538 -0.452600 4.316200 -11.967900 4.158217 0.503499 12.988287 1.053299 1.161329 -4.694249 2.858144 0.469416 -18.515490 -22.655145 -14.726371 8.731870 7.906770 -28.665592 5.114463 18.713400 -13.704400 4.668300 -7.909724 -11.865879 3.220381 -64.622278 -3.880510 20.587745 84.223404 -54.424136 -70.168554 0.132311 -2.391944 -6.271395 -2.919102 -13.638021 0.544800 -7.125000 0.000000 0.000000 -20.707800 19.040900 13.741600 4.564618 8.243528 3.042553 61.999665 14.956153 23.662642 -86.756088 55.942136 -71.420398 -0.635252 2.030716 32.128812 4.104233 9.487089 0.809000 7.125000 0.000000 0.000000 23.129800 -21.957500 13.955000 
6.846702 17.200679 34.052622 -9.666835 -62.146668 19.629169 -1.677562 -6.653094 -4.230077 -7.115018 1.605445 -30.575834 2.948877 15.248915 40.032354 1.850946 0.577460 8.374701 0.557500 -4.782800 -13.290200 1.898549 6.272036 -3.531555 15.456864 1.536813 -29.638523 -3.406015 -16.580486 43.050658 -1.491789 -1.005818 2.931258 -0.457200 4.337400 -12.028000 4.185670 0.509040 12.986581 1.054759 1.172650 -4.692699 2.855308 0.472558 -18.516489 -22.655421 -14.738809 8.758517 7.927788 -28.697939 5.073190 18.738800 -13.702800 4.639400 -7.910390 -11.855290 3.225916 -64.573303 -3.839114 20.568360 84.337894 -54.452825 -70.280750 0.127774 -2.394668 -6.246059 -2.908603 -13.689632 0.544300 -7.125000 0.000000 0.000000 -20.691900 18.994500 13.752600 4.571151 8.244097 3.045211 61.971562 14.918614 23.681552 -86.774449 55.948653 -71.434270 -0.635432 2.034622 32.121150 4.065891 9.463172 0.801100 7.125000 0.000000 0.000000 23.110100 -21.983200 13.925900 
6.847046 17.194386 34.052508 -9.761698 -62.155690 19.690581 -1.657764 -6.647568 -4.236548 -7.087252 1.596883 -30.589921 2.984960 15.278202 40.134510 1.845145 0.579545 8.298756 0.559800 -4.792300 -13.317100 1.891107 6.272607 -3.532723 15.507506 1.544209 -29.658304 -3.425871 -16.603194 43.122484 -1.493213 -0.996032 2.883140 -0.462900 4.364200 -12.103700 4.219985 0.513067 12.987226 1.056032 1.182907 -4.690673 2.848557 0.474053 -18.515118 -22.654815 -14.748226 8.782911 7.948355 -28.726735 5.036198 18.764900 -13.701600 4.614300 -7.911166 -11.846025 3.231326 -64.526528 -3.801212 20.537146 84.449092 -54.481206 -70.391940 0.121864 -2.395716 -6.192699 -2.914592 -13.757919 0.548000 -7.125000 0.000000 0.000000 -20.684700 18.931000 13.778700 4.575774 8.243847 3.047827 61.953681 14.894129 23.699345 -86.783027 55.952523 -71.439623 -0.635528 2.036881 32.122003 4.044386 9.453481 0.797200 7.125000 0.000000 0.000000 23.098500 -21.994100 13.911300 
6.847503 17.186950 34.052736 -9.852076 -62.164267 19.744249 -1.636628 -6.642219 -4.243373 -7.065083 1.588853 -30.607378 3.025825 15.311972 40.252171 1.837810 0.582933 8.206247 0.563600 -4.808600 -13.363300 1.881470 6.272314 -3.534081 15.555312 1.548895 -29.681316 -3.450943 -16.629875 43.210330 -1.499940 -0.973763 2.826249 -0.467700 4.386200 -12.165900 4.256990 0.514106 12.989746 1.057270 1.189458 -4.688275 2.840399 0.473531 -18.510222 -22.653456 -14.751528 8.800592 7.967617 -28.745853 5.005746 18.792000 -13.698700 4.593700 -7.912240 -11.838399 3.236510 -64.479521 -3.767683 20.495640 84.558914 -54.509239 -70.503559 0.115703 -2.396411 -6.134763 -2.924195 -13.826254 0.552400 -7.125000 0.000000 0.000000 -20.679800 18.867100 13.806800 4.578284 8.242814 3.050032 61.945496 14.884589 23.721507 -86.776609 55.952671 -71.430664 -0.635571 2.037791 32.131970 4.035021 9.456706 0.796200 7.125000 0.000000 0.000000 23.092300 -21.991600 13.908300 
6.848304 17.178483 34.053080 -9.938772 -62.169252 19.791627 -1.613577 -6.637076 -4.250951 -7.046233 1.580182 -30.630613 3.070742 15.350134 40.384014 1.832984 0.579019 8.102031 0.567800 -4.825900 -13.412600 1.869647 6.271793 -3.535647 15.602345 1.551406 -29.709656 -3.481164 -16.660478 43.313829 -1.511187 -0.940765 2.761201 -0.470400 4.398800 -12.201500 4.292300 0.510422 12.997405 1.060201 1.189317 -4.686458 2.841173 0.471544 -18.508550 -22.655104 -14.749479 8.813326 7.983093 -28.752497 4.981745 18.816400 -13.692500 4.574900 -7.912260 -11.832239 3.240692 -64.444094 -3.733815 20.444000 84.671056 -54.537352 -70.617107 0.109631 -2.396840 -6.075457 -2.931427 -13.890945 0.556200 -7.125000 0.000000 0.000000 -20.674000 18.806400 13.832600 4.580934 8.242518 3.051641 61.938999 14.884454 23.751428 -86.756560 55.949217 -71.408939 -0.635438 2.037859 32.148505 4.032587 9.473285 0.797600 7.125000 0.000000 0.000000 23.088100 -21.976000 13.914400 
6.849334 17.169444 34.053652 -10.031739 -62.171728 19.843656 -1.588584 -6.631964 -4.259549 -7.025774 1.566274 -30.656675 3.119672 15.392029 40.527623 1.825354 0.579676 7.987446 0.572300 -4.844600 -13.465800 1.855832 6.271292 -3.537617 15.652694 1.550473 -29.745200 -3.515824 -16.695034 43.432034 -1.526987 -0.896879 2.688283 -0.472200 4.407000 -12.224500 4.332796 0.504050 13.007314 1.064025 1.186158 -4.684619 2.842951 0.468003 -18.504537 -22.650017 -14.745408 8.815969 7.993439 -28.748022 4.963899 18.833500 -13.682600 4.556700 -7.911495 -11.826928 3.244552 -64.409976 -3.705907 20.392392 84.785403 -54.564843 -70.732019 0.104509 -2.398039 -6.042631 -2.933510 -13.940935 0.558200 -7.125000 0.000000 0.000000 -20.666600 18.760300 13.849800 4.583881 8.243036 3.053042 61.932031 14.892897 23.784718 -86.728148 55.943201 -71.379463 -0.635392 2.037846 32.169491 4.030616 9.490929 0.799200 7.125000 0.000000 0.000000 23.084000 -21.959300 13.921200 
6.850707 17.159490 34.053995 -10.115027 -62.168380 19.884854 -1.562577 -6.627618 -4.269004 -7.007291 1.542275 -30.685606 3.171777 15.438334 40.682842 1.816167 0.582030 7.864173 0.576500 -4.862200 -13.516100 1.840158 6.270651 -3.539741 15.701647 1.543233 -29.788321 -3.555409 -16.732774 43.564076 -1.545197 -0.846951 2.608291 -0.473500 4.413200 -12.242200 4.371088 0.499802 13.024117 1.067048 1.186040 -4.682994 2.841697 0.465603 -18.502897 -22.641008 -14.746010 8.816467 8.004792 -28.752993 4.947384 18.845700 -13.678100 4.544700 -7.911644 -11.823944 3.248737 -64.370725 -3.690671 20.357369 84.896406 -54.589231 -70.841781 0.099867 -2.398964 -6.052065 -2.954538 -13.986407 0.563500 -7.125000 0.000000 0.000000 -20.671300 18.718100 13.874400 4.586891 8.244097 3.054032 61.921137 14.900566 23.802514 -86.695615 55.936958 -71.349757 -0.635789 2.037982 32.190701 4.031889 9.496055 0.800000 7.125000 0.000000 0.000000 23.084500 -21.953800 13.924700 
